<svg xmlns="http://www.w3.org/2000/svg"
     viewBox="0 0 64 64"
     width="64"
     height="64"
     shape-rendering="crispEdges">

    <!-- Shadow -->
    <rect x="15" y="59" width="34" height="2" fill="#c8b8df"/>

    <!-- Tail outline -->
    <rect x="48" y="27" width="6" height="22" fill="#392b35"/>
    <rect x="52" y="22" width="6" height="12" fill="#392b35"/>

    <!-- Tail -->
    <rect x="50" y="29" width="4" height="18" fill="#d89568"/>
    <rect x="54" y="24" width="4" height="9" fill="#d89568"/>
    <rect x="56" y="25" width="2" height="5" fill="#e3a477"/>

    <!-- Body outline -->
    <rect x="18" y="34" width="29" height="20" fill="#392b35"/>
    <rect x="21" y="50" width="23" height="7" fill="#392b35"/>

    <!-- Body -->
    <rect x="20" y="36" width="25" height="17" fill="#e7aa7b"/>
    <rect x="23" y="49" width="19" height="6" fill="#e7aa7b"/>

    <!-- Chest -->
    <rect x="27" y="38" width="12" height="15" fill="#fff4e8"/>
    <rect x="24" y="43" width="4" height="8" fill="#fff4e8"/>
    <rect x="38" y="43" width="4" height="8" fill="#fff4e8"/>

    <!-- Raised left paw -->
    <rect x="14" y="39" width="10" height="12" fill="#392b35"/>
    <rect x="16" y="40" width="7" height="9" fill="#fff4e8"/>

    <!-- Raised right paw -->
    <rect x="39" y="38" width="11" height="13" fill="#392b35"/>
    <rect x="40" y="40" width="8" height="9" fill="#fff4e8"/>

    <!-- Head -->
    <rect x="12" y="10" width="40" height="30" fill="#392b35"/>

    <!-- Ears -->
    <rect x="13" y="5" width="11" height="11" fill="#392b35"/>
    <rect x="40" y="5" width="11" height="11" fill="#392b35"/>

    <rect x="15" y="7" width="8" height="9" fill="#d89568"/>
    <rect x="17" y="8" width="5" height="6" fill="#ff9fb2"/>

    <rect x="42" y="7" width="8" height="9" fill="#d89568"/>
    <rect x="43" y="8" width="5" height="6" fill="#ff9fb2"/>

    <!-- Face -->
    <rect x="14" y="13" width="36" height="24" fill="#e7aa7b"/>
    <rect x="23" y="14" width="18" height="23" fill="#fff4e8"/>
    <rect x="19" y="18" width="26" height="18" fill="#fff4e8"/>

    <!-- Forehead -->
    <rect x="27" y="14" width="4" height="7" fill="#d89568"/>
    <rect x="34" y="14" width="4" height="7" fill="#d89568"/>

    <!-- Eyes -->
    <rect x="20" y="22" width="7" height="8" fill="#392b35"/>
    <rect x="37" y="22" width="7" height="8" fill="#392b35"/>
    <rect x="21" y="23" width="2" height="2" fill="#ffffff"/>
    <rect x="38" y="23" width="2" height="2" fill="#ffffff"/>

    <!-- Blush -->
    <rect x="16" y="30" width="6" height="3" fill="#ffb1b5"/>
    <rect x="42" y="30" width="6" height="3" fill="#ffb1b5"/>

    <!-- Nose -->
    <rect x="30" y="29" width="5" height="4" fill="#ff8fa5"/>

    <!-- Happy mouth -->
    <rect x="29" y="33" width="7" height="4" fill="#392b35"/>
    <rect x="31" y="35" width="3" height="2" fill="#ff8fa5"/>

    <!-- Whiskers -->
    <rect x="8" y="28" width="7" height="1" fill="#392b35"/>
    <rect x="7" y="32" width="8" height="1" fill="#392b35"/>
    <rect x="49" y="28" width="7" height="1" fill="#392b35"/>
    <rect x="49" y="32" width="8" height="1" fill="#392b35"/>

    <!-- Collar -->
    <rect x="22" y="38" width="20" height="3" fill="#ef6f91"/>

    <!-- Bell -->
    <rect x="30" y="40" width="5" height="5" fill="#f5c84c"/>
    <rect x="31" y="44" width="3" height="2" fill="#d69b26"/>

</svg>